<?xml version="1.0" encoding="UTF-8"?>
<!--Generator: Apple Native CoreSVG 341-->
<!DOCTYPE svg
PUBLIC "-//W3C//DTD SVG 1.1//EN"
       "http://www.w3.org/Graphics/SVG/1.1/DTD/svg11.dtd">
<svg version="1.1" xmlns="http://www.w3.org/2000/svg" xmlns:xlink="http://www.w3.org/1999/xlink" viewBox="0 0 3300 2200">
 <!--glyph: "101ABF", point size: 100.0, font version: "21.1d1e1", template writer version: "138.0.0"-->
 <style>.defaults {-sfsymbols-draw-reverses-motion-groups:true}

.monochrome-0 {-sfsymbols-motion-group:1;-sfsymbols-layer-tags:cloud.sun.fill}
.monochrome-1 {opacity:0.0;-sfsymbols-clear-behind:true;-sfsymbols-motion-group:0;-sfsymbols-layer-tags:cloud.sun.fill}
.monochrome-2 {-sfsymbols-motion-group:0;-sfsymbols-layer-tags:cloud.sun.fill}

.multicolor-0:systemYellowColor {-sfsymbols-motion-group:1;-sfsymbols-layer-tags:cloud.sun.fill}
.multicolor-1:tintColor {opacity:0.0;-sfsymbols-clear-behind:true;-sfsymbols-motion-group:0;-sfsymbols-layer-tags:cloud.sun.fill}
.multicolor-2:white {-sfsymbols-motion-group:0;-sfsymbols-layer-tags:cloud.sun.fill}

.hierarchical-0:secondary {-sfsymbols-motion-group:1;-sfsymbols-layer-tags:cloud.sun.fill}
.hierarchical-1:primary {opacity:0.0;-sfsymbols-clear-behind:true;-sfsymbols-motion-group:0;-sfsymbols-layer-tags:cloud.sun.fill}
.hierarchical-2:primary {-sfsymbols-motion-group:0;-sfsymbols-layer-tags:cloud.sun.fill}

.SFSymbolsPreviewWireframe {fill:none;opacity:1.0;stroke:black;stroke-width:0.5}
</style>
 <g id="Notes">
  <rect height="2200" id="artboard" style="fill:white;opacity:1" width="3300" x="0" y="0"/>
  <line style="fill:none;stroke:black;opacity:1;stroke-width:0.5;" x1="263" x2="3036" y1="292" y2="292"/>
  <text style="stroke:none;fill:black;font-family:sans-serif;font-size:13;font-weight:bold;" transform="matrix(1 0 0 1 263 322)">Weight/Scale Variations</text>
  <text style="stroke:none;fill:black;font-family:sans-serif;font-size:13;text-anchor:middle;" transform="matrix(1 0 0 1 559.711 322)">Ultralight</text>
  <text style="stroke:none;fill:black;font-family:sans-serif;font-size:13;text-anchor:middle;" transform="matrix(1 0 0 1 856.422 322)">Thin</text>
  <text style="stroke:none;fill:black;font-family:sans-serif;font-size:13;text-anchor:middle;" transform="matrix(1 0 0 1 1153.13 322)">Light</text>
  <text style="stroke:none;fill:black;font-family:sans-serif;font-size:13;text-anchor:middle;" transform="matrix(1 0 0 1 1449.84 322)">Regular</text>
  <text style="stroke:none;fill:black;font-family:sans-serif;font-size:13;text-anchor:middle;" transform="matrix(1 0 0 1 1746.56 322)">Medium</text>
  <text style="stroke:none;fill:black;font-family:sans-serif;font-size:13;text-anchor:middle;" transform="matrix(1 0 0 1 2043.27 322)">Semibold</text>
  <text style="stroke:none;fill:black;font-family:sans-serif;font-size:13;text-anchor:middle;" transform="matrix(1 0 0 1 2339.98 322)">Bold</text>
  <text style="stroke:none;fill:black;font-family:sans-serif;font-size:13;text-anchor:middle;" transform="matrix(1 0 0 1 2636.69 322)">Heavy</text>
  <text style="stroke:none;fill:black;font-family:sans-serif;font-size:13;text-anchor:middle;" transform="matrix(1 0 0 1 2933.4 322)">Black</text>
  <line style="fill:none;stroke:black;opacity:1;stroke-width:0.5;" x1="263" x2="3036" y1="1903" y2="1903"/>
  <g transform="matrix(0.2 0 0 0.2 263 1933)">
   <path d="m46.2402 4.15039c21.7773 0 39.4531-17.627 39.4531-39.4043s-17.6758-39.4043-39.4531-39.4043c-21.7285 0-39.4043 17.627-39.4043 39.4043s17.6758 39.4043 39.4043 39.4043Zm0-7.42188c-17.6758 0-31.9336-14.3066-31.9336-31.9824s14.2578-31.9824 31.9336-31.9824 31.9824 14.3066 31.9824 31.9824-14.3066 31.9824-31.9824 31.9824Zm3.61328-17.7734v-28.4668c0-2.24609-1.46484-3.75977-3.71094-3.75977-2.14844 0-3.61328 1.51367-3.61328 3.75977v28.4668c0 2.19727 1.46484 3.71094 3.61328 3.71094 2.24609 0 3.71094-1.51367 3.71094-3.71094Zm-17.8223-10.5957h28.418c2.19727 0 3.71094-1.46484 3.71094-3.61328 0-2.19727-1.51367-3.71094-3.71094-3.71094h-28.418c-2.24609 0-3.75977 1.51367-3.75977 3.71094 0 2.14844 1.51367 3.61328 3.75977 3.61328Z"/>
  </g>
  <g transform="matrix(0.2 0 0 0.2 281.506 1933)">
   <path d="m58.5449 14.5508c27.4902 0 49.8047-22.3145 49.8047-49.8047s-22.3145-49.8047-49.8047-49.8047-49.8047 22.3145-49.8047 49.8047 22.3145 49.8047 49.8047 49.8047Zm0-8.30078c-22.9492 0-41.5039-18.5547-41.5039-41.5039s18.5547-41.5039 41.5039-41.5039 41.5039 18.5547 41.5039 41.5039-18.5547 41.5039-41.5039 41.5039Zm4.05273-23.0957v-36.9141c0-2.49023-1.70898-4.19922-4.15039-4.19922-2.39258 0-4.05273 1.70898-4.05273 4.19922v36.9141c0 2.44141 1.66016 4.15039 4.05273 4.15039 2.44141 0 4.15039-1.66016 4.15039-4.15039Zm-22.5586-14.4043h36.9629c2.44141 0 4.15039-1.61133 4.15039-4.00391 0-2.44141-1.70898-4.15039-4.15039-4.15039h-36.9629c-2.49023 0-4.15039 1.70898-4.15039 4.15039 0 2.39258 1.66016 4.00391 4.15039 4.00391Z"/>
  </g>
  <g transform="matrix(0.2 0 0 0.2 304.924 1933)">
   <path d="m74.8535 28.3203c35.1074 0 63.623-28.4668 63.623-63.5742s-28.5156-63.623-63.623-63.623-63.5742 28.5156-63.5742 63.623 28.4668 63.5742 63.5742 63.5742Zm0-9.08203c-30.127 0-54.4922-24.3652-54.4922-54.4922s24.3652-54.4922 54.4922-54.4922 54.4922 24.3652 54.4922 54.4922-24.3652 54.4922-54.4922 54.4922Zm4.44336-30.3223v-48.4863c0-2.73438-1.85547-4.63867-4.54102-4.63867-2.58789 0-4.44336 1.9043-4.44336 4.63867v48.4863c0 2.68555 1.85547 4.58984 4.44336 4.58984 2.68555 0 4.54102-1.85547 4.54102-4.58984Zm-28.7109-19.7754h48.4863c2.68555 0 4.58984-1.80664 4.58984-4.39453 0-2.73438-1.85547-4.58984-4.58984-4.58984h-48.4863c-2.73438 0-4.58984 1.85547-4.58984 4.58984 0 2.58789 1.85547 4.39453 4.58984 4.39453Z"/>
  </g>
  <text style="stroke:none;fill:black;font-family:sans-serif;font-size:13;font-weight:bold;" transform="matrix(1 0 0 1 263 1953)">Design Variations</text>
  <text style="stroke:none;fill:black;font-family:sans-serif;font-size:13;" transform="matrix(1 0 0 1 263 1971)">Symbols are supported in up to nine weights and three scales.</text>
  <text style="stroke:none;fill:black;font-family:sans-serif;font-size:13;" transform="matrix(1 0 0 1 263 1989)">For optimal layout with text and other symbols, vertically align</text>
  <text style="stroke:none;fill:black;font-family:sans-serif;font-size:13;" transform="matrix(1 0 0 1 263 2007)">symbols with the adjacent text.</text>
  <line style="fill:none;stroke:#00AEEF;stroke-width:0.5;opacity:1.0;" x1="776" x2="776" y1="1919" y2="1933"/>
  <g transform="matrix(0.2 0 0 0.2 776 1933)">
   <path d="m16.5527 0.78125c2.58789 0 3.85742-0.976562 4.78516-3.71094l20.5566-57.5195h0.244141l20.6055 57.5195c0.927734 2.73438 2.19727 3.71094 4.73633 3.71094 2.58789 0 4.24805-1.5625 4.24805-4.00391 0-0.830078-0.146484-1.61133-0.537109-2.63672l-22.9004-60.9863c-1.12305-2.97852-3.125-4.49219-6.25-4.49219-3.02734 0-5.07812 1.46484-6.15234 4.44336l-22.9004 61.084c-0.390625 1.02539-0.537109 1.80664-0.537109 2.63672 0 2.44141 1.5625 3.95508 4.10156 3.95508Zm10.2051-20.9473h30.6641c2.00195 0 3.66211-1.66016 3.66211-3.66211 0-2.05078-1.66016-3.66211-3.66211-3.66211h-30.6641c-2.00195 0-3.66211 1.61133-3.66211 3.66211 0 2.00195 1.66016 3.66211 3.66211 3.66211Z"/>
  </g>
  <line style="fill:none;stroke:#00AEEF;stroke-width:0.5;opacity:1.0;" x1="792.836" x2="792.836" y1="1919" y2="1933"/>
  <text style="stroke:none;fill:black;font-family:sans-serif;font-size:13;font-weight:bold;" transform="matrix(1 0 0 1 776 1953)">Margins</text>
  <text style="stroke:none;fill:black;font-family:sans-serif;font-size:13;" transform="matrix(1 0 0 1 776 1971)">Leading and trailing margins on the left and right side of each symbol</text>
  <text style="stroke:none;fill:black;font-family:sans-serif;font-size:13;" transform="matrix(1 0 0 1 776 1989)">can be adjusted by modifying the x-location of the margin guidelines.</text>
  <text style="stroke:none;fill:black;font-family:sans-serif;font-size:13;" transform="matrix(1 0 0 1 776 2007)">Modifications are automatically applied proportionally to all</text>
  <text style="stroke:none;fill:black;font-family:sans-serif;font-size:13;" transform="matrix(1 0 0 1 776 2025)">scales and weights.</text>
  <g transform="matrix(0.2 0 0 0.2 1289 1933)">
   <path d="m14.209 13.1348 7.86133 7.86133c4.29688 4.39453 9.32617 4.10156 13.8672-1.02539l60.6934-68.2129-4.88281-4.88281-60.2539 67.6758c-1.80664 1.95312-3.4668 2.44141-5.81055 0.0976562l-5.17578-5.12695c-2.29492-2.29492-1.80664-3.95508 0.195312-5.81055l67.4805-62.1582-4.88281-4.83398-68.0664 62.5977c-4.98047 4.58984-5.32227 9.47266-1.02539 13.8184Zm44.873-97.4609c-2.05078 2.00195-2.24609 4.88281-1.07422 6.78711 1.12305 1.80664 3.4668 3.02734 6.5918 2.24609 5.85938-1.66016 12.5977-2.39258 18.8965 0.927734l-2.68555 7.12891c-1.61133 4.00391-0.732422 6.88477 1.70898 9.42383l10.2539 10.3027c2.34375 2.39258 4.54102 2.44141 7.08008 1.95312l4.44336-0.732422 2.58789 2.53906-0.195312 2.24609c-0.0976562 2.29492 0.537109 4.29688 2.7832 6.49414l3.36914 3.32031c2.29492 2.29492 5.51758 2.49023 7.8125 0.195312l12.9883-13.0371c2.29492-2.34375 2.14844-5.37109-0.195312-7.66602l-3.41797-3.41797c-2.19727-2.19727-4.05273-3.02734-6.34766-2.88086l-2.34375 0.244141-2.44141-2.44141 1.02539-4.6875c0.634766-2.73438-0.244141-4.98047-2.88086-7.61719l-11.2793-11.1816c-12.9395-12.8418-35.5957-11.0352-46.6797-0.146484Zm7.08008 2.05078c8.78906-6.39648 25.9766-5.66406 33.6914 1.95312l12.3047 12.207c1.02539 1.02539 1.2207 1.80664 0.927734 3.32031l-1.46484 6.64062 6.73828 6.68945 4.39453-0.244141c1.12305-0.0488281 1.51367 0.0488281 2.34375 0.878906l2.53906 2.49023-10.8398 10.8398-2.49023-2.49023c-0.830078-0.878906-0.976562-1.2207-0.927734-2.39258l0.292969-4.3457-6.68945-6.73828-6.83594 1.17188c-1.41602 0.292969-2.05078 0.195312-3.17383-0.878906l-8.93555-8.88672c-1.07422-1.02539-1.17188-1.70898-0.488281-3.36914l4.58984-11.4746c-6.10352-6.34766-17.041-7.51953-25.5859-4.58984-0.683594 0.244141-0.927734-0.390625-0.390625-0.78125Z"/>
  </g>
  <text style="stroke:none;fill:black;font-family:sans-serif;font-size:13;font-weight:bold;" transform="matrix(1 0 0 1 1289 1953)">Exporting</text>
  <text style="stroke:none;fill:black;font-family:sans-serif;font-size:13;" transform="matrix(1 0 0 1 1289 1971)">Symbols should be outlined when exporting to ensure the</text>
  <text style="stroke:none;fill:black;font-family:sans-serif;font-size:13;" transform="matrix(1 0 0 1 1289 1989)">design is preserved when submitting to Xcode.</text>
  <text id="template-version" style="stroke:none;fill:black;font-family:sans-serif;font-size:13;text-anchor:end;" transform="matrix(1 0 0 1 3036 1933)">Template v.7.0</text>
  <text style="stroke:none;fill:black;font-family:sans-serif;font-size:13;text-anchor:end;" transform="matrix(1 0 0 1 3036 1951)">Requires Xcode 26 or greater</text>
  <text id="descriptive-name" style="stroke:none;fill:black;font-family:sans-serif;font-size:13;text-anchor:end;" transform="matrix(1 0 0 1 3036 1969)">Generated from cloud.sun.fill</text>
  <text style="stroke:none;fill:black;font-family:sans-serif;font-size:13;text-anchor:end;" transform="matrix(1 0 0 1 3036 1987)">Typeset at 100.0 points</text>
  <text style="stroke:none;fill:black;font-family:sans-serif;font-size:13;" transform="matrix(1 0 0 1 263 726)">Small</text>
  <text style="stroke:none;fill:black;font-family:sans-serif;font-size:13;" transform="matrix(1 0 0 1 263 1156)">Medium</text>
  <text style="stroke:none;fill:black;font-family:sans-serif;font-size:13;" transform="matrix(1 0 0 1 263 1586)">Large</text>
 </g>
 <g id="Guides">
  <g id="H-reference" style="fill:#27AAE1;stroke:none;" transform="matrix(1 0 0 1 339 696)">
   <path d="M0.993654 0L3.63775 0L29.3281-67.1323L30.0303-67.1323L30.0303-70.459L28.1226-70.459ZM11.6885-24.4799L46.9815-24.4799L46.2315-26.7285L12.4385-26.7285ZM55.1196 0L57.7637 0L30.6382-70.459L29.4326-70.459L29.4326-67.1323Z"/>
  </g>
  <line id="Baseline-S" style="fill:none;stroke:#27AAE1;opacity:1;stroke-width:0.5;" x1="263" x2="3036" y1="696" y2="696"/>
  <line id="Capline-S" style="fill:none;stroke:#27AAE1;opacity:1;stroke-width:0.5;" x1="263" x2="3036" y1="625.541" y2="625.541"/>
  <g id="H-reference" style="fill:#27AAE1;stroke:none;" transform="matrix(1 0 0 1 339 1126)">
   <path d="M0.993654 0L3.63775 0L29.3281-67.1323L30.0303-67.1323L30.0303-70.459L28.1226-70.459ZM11.6885-24.4799L46.9815-24.4799L46.2315-26.7285L12.4385-26.7285ZM55.1196 0L57.7637 0L30.6382-70.459L29.4326-70.459L29.4326-67.1323Z"/>
  </g>
  <line id="Baseline-M" style="fill:none;stroke:#27AAE1;opacity:1;stroke-width:0.5;" x1="263" x2="3036" y1="1126" y2="1126"/>
  <line id="Capline-M" style="fill:none;stroke:#27AAE1;opacity:1;stroke-width:0.5;" x1="263" x2="3036" y1="1055.54" y2="1055.54"/>
  <g id="H-reference" style="fill:#27AAE1;stroke:none;" transform="matrix(1 0 0 1 339 1556)">
   <path d="M0.993654 0L3.63775 0L29.3281-67.1323L30.0303-67.1323L30.0303-70.459L28.1226-70.459ZM11.6885-24.4799L46.9815-24.4799L46.2315-26.7285L12.4385-26.7285ZM55.1196 0L57.7637 0L30.6382-70.459L29.4326-70.459L29.4326-67.1323Z"/>
  </g>
  <line id="Baseline-L" style="fill:none;stroke:#27AAE1;opacity:1;stroke-width:0.5;" x1="263" x2="3036" y1="1556" y2="1556"/>
  <line id="Capline-L" style="fill:none;stroke:#27AAE1;opacity:1;stroke-width:0.5;" x1="263" x2="3036" y1="1485.54" y2="1485.54"/>
  <line id="right-margin-Black-S" style="fill:none;stroke:#FF3B30;stroke-width:0.5;opacity:1.0;" x1="2994.19" x2="2994.19" y1="600.785" y2="720.121"/>
  <line id="left-margin-Black-S" style="fill:none;stroke:#FF3B30;stroke-width:0.5;opacity:1.0;" x1="2872.61" x2="2872.61" y1="600.785" y2="720.121"/>
  <line id="right-margin-Regular-S" style="fill:none;stroke:#FF3B30;stroke-width:0.5;opacity:1.0;" x1="1505.7" x2="1505.7" y1="600.785" y2="720.121"/>
  <line id="left-margin-Regular-S" style="fill:none;stroke:#FF3B30;stroke-width:0.5;opacity:1.0;" x1="1393.99" x2="1393.99" y1="600.785" y2="720.121"/>
  <line id="right-margin-Ultralight-S" style="fill:none;stroke:#FF3B30;stroke-width:0.5;opacity:1.0;" x1="614.049" x2="614.049" y1="600.785" y2="720.121"/>
  <line id="left-margin-Ultralight-S" style="fill:none;stroke:#00AEEF;stroke-width:0.5;opacity:1.0;" x1="505.373" x2="505.373" y1="600.785" y2="720.121"/>
 </g>
 <g id="Symbols">
  <g id="Black-S" transform="matrix(1 0 0 1 2872.61 696)">
   <path class="SFSymbolsPreviewWireframe" d="M83.2031-12.207C80.5664-12.207 78.418-9.96094 78.418-7.32422L78.418-1.07422C78.418 1.61133 80.5664 3.80859 83.2031 3.80859C85.8398 3.80859 87.9883 1.61133 87.9883-1.07422L87.9883-7.32422C87.9883-9.96094 85.8398-12.207 83.2031-12.207Z"/>
   <path class="monochrome-0 multicolor-0:systemYellowColor hierarchical-0:secondary SFSymbolsPreviewWireframe" d="M83.0078-64.2578C85.6445-64.2578 87.793-66.5039 87.793-69.1406L87.793-75.3906C87.793-78.0762 85.6445-80.2734 83.0078-80.2734C80.3711-80.2734 78.2227-78.0762 78.2227-75.3906L78.2227-69.1406C78.2227-66.5039 80.3711-64.2578 83.0078-64.2578ZM101.465-56.5918C103.32-54.7363 106.445-54.834 108.301-56.6895L112.744-61.084C114.648-62.9395 114.648-66.0645 112.793-67.9199C110.938-69.7754 107.861-69.7266 105.957-67.8223L101.514-63.4766C99.6094-61.6211 99.6094-58.4473 101.465-56.5918ZM108.984-38.2324C108.984-35.5957 111.23-33.4961 113.867-33.4961L120.117-33.4961C122.803-33.4961 125-35.5957 125-38.2324C125-40.8691 122.803-43.0664 120.117-43.0664L113.867-43.0664C111.23-43.0664 108.984-40.8691 108.984-38.2324ZM101.611-19.8242C99.7559-17.9688 99.8535-14.9414 101.709-12.9883L106.055-8.49609C107.861-6.5918 111.084-6.64062 112.939-8.49609C114.795-10.3516 114.697-13.4277 112.842-15.2832L108.447-19.7266C106.543-21.6309 103.467-21.6797 101.611-19.8242ZM64.7461-19.873C62.8906-21.7285 59.7656-21.6309 57.9102-19.7754L53.4668-15.3809C51.5625-13.5254 51.5625-10.4004 53.418-8.54492C55.2734-6.68945 58.3496-6.73828 60.2539-8.64258L64.6973-12.9883C66.6016-14.8438 66.6016-18.0176 64.7461-19.873ZM57.2266-38.2324C57.2266-40.8691 54.9805-43.0664 52.3438-43.0664L46.0938-43.0664C43.4082-43.0664 41.2109-40.8691 41.2109-38.2324C41.2109-35.5957 43.4082-33.4961 46.0938-33.4961L52.3438-33.4961C54.9805-33.4961 57.2266-35.5957 57.2266-38.2324ZM64.5996-56.6406C66.4551-58.4961 66.3574-61.5234 64.502-63.4766L60.1562-67.9688C58.3496-69.873 55.127-69.8242 53.2715-67.9688C51.416-66.1133 51.5137-63.0371 53.3691-61.1816L57.7637-56.7383C59.668-54.834 62.7441-54.7852 64.5996-56.6406ZM83.1055-18.1152C94.2383-18.1152 103.223-27.0996 103.223-38.2324C103.223-49.3652 94.2383-58.3496 83.1055-58.3496C71.9727-58.3496 62.9883-49.3652 62.9883-38.2324C62.9883-27.0996 71.9727-18.1152 83.1055-18.1152Z"/>
   <path class="monochrome-1 multicolor-1:tintColor hierarchical-1:primary SFSymbolsPreviewWireframe" d="M20.5566 13.2324L68.3105 13.2324C83.7402 13.2324 95.3613 1.02539 95.3613-14.6973C95.3613-29.7852 85.0098-41.3574 70.5078-43.1641C65.332-50.5371 56.3965-57.5195 42.0898-57.5195C25.8301-57.5195 12.1582-46.6309 8.74023-31.3965C0.976562-27.5391-3.90625-19.6289-3.90625-10.4004C-3.90625 3.41797 6.39648 13.2324 20.5566 13.2324Z"/>
   <path class="monochrome-2 multicolor-2:white hierarchical-2:primary SFSymbolsPreviewWireframe" d="M20.5566 5.9082L68.3105 5.9082C79.5898 5.9082 88.0371-2.92969 88.0371-14.6973C88.0371-27.1484 78.9062-36.1816 66.2598-36.084C62.5-43.0664 55.2246-50.1953 42.0898-50.1953C27.9297-50.1953 16.4062-39.8438 15.332-26.0742C8.10547-24.2676 3.41797-18.1152 3.41797-10.4004C3.41797-0.683594 10.3516 5.9082 20.5566 5.9082Z"/>
  </g>
  <g id="Regular-S" transform="matrix(1 0 0 1 1393.99 696)">
   <path class="SFSymbolsPreviewWireframe" d="M75.293-10.498C73.3398-10.498 71.6309-8.78906 71.6309-6.83594L71.6309 0.830078C71.6309 2.7832 73.3398 4.49219 75.293 4.49219C77.2949 4.49219 78.9551 2.7832 78.9551 0.830078L78.9551-6.83594C78.9551-8.78906 77.2949-10.498 75.293-10.498Z"/>
   <path class="monochrome-0 multicolor-0:systemYellowColor hierarchical-0:secondary SFSymbolsPreviewWireframe" d="M75.293-60.6934C77.2949-60.6934 78.9551-62.3047 78.9551-64.3066L78.9551-71.9727C78.9551-73.9258 77.2949-75.6348 75.293-75.6348C73.3398-75.6348 71.6309-73.9258 71.6309-71.9727L71.6309-64.3066C71.6309-62.3047 73.3398-60.6934 75.293-60.6934ZM92.9688-53.2715C94.3848-51.8555 96.7285-51.8066 98.1934-53.2715L103.613-58.6914C105.029-60.1074 105.029-62.4512 103.613-63.8672C102.197-65.2832 99.8535-65.2832 98.4863-63.8672L92.9688-58.3496C91.6016-57.0312 91.6016-54.6875 92.9688-53.2715ZM100.293-35.5957C100.293-33.5449 102.002-31.9336 103.955-31.9336L111.572-31.9336C113.574-31.9336 115.186-33.5449 115.186-35.5957C115.186-37.5488 113.574-39.2578 111.572-39.2578L103.955-39.2578C102.002-39.2578 100.293-37.5488 100.293-35.5957ZM92.9688-17.8711C91.6016-16.4551 91.6016-14.1113 92.9688-12.6953L98.4863-7.22656C99.8535-5.85938 102.197-5.9082 103.613-7.27539C105.029-8.64258 105.029-10.9863 103.613-12.4023L98.1445-17.8711C96.7285-19.2383 94.3848-19.2383 92.9688-17.8711ZM57.6172-17.8711C56.25-19.2383 53.8574-19.2383 52.4414-17.8711L47.0215-12.4512C45.6055-11.0352 45.6055-8.69141 46.9727-7.32422C48.3887-5.95703 50.7812-5.9082 52.1484-7.27539L57.5684-12.6953C58.9844-14.1113 58.9844-16.4551 57.6172-17.8711ZM50.293-35.5957C50.293-37.5488 48.6328-39.2578 46.6309-39.2578L39.0137-39.2578C37.0605-39.2578 35.4004-37.5488 35.4004-35.5957C35.4004-33.5449 37.0605-31.9336 39.0137-31.9336L46.6309-31.9336C48.6328-31.9336 50.293-33.5449 50.293-35.5957ZM57.5684-53.2715C58.9844-54.6387 58.9844-57.0312 57.6172-58.3496L52.1484-63.8672C50.8301-65.2344 48.4863-65.2832 47.0703-63.8672C45.6543-62.4512 45.6543-60.1074 47.0215-58.7402L52.4414-53.2715C53.8574-51.8555 56.2012-51.8555 57.5684-53.2715ZM75.293-16.3574C85.791-16.3574 94.4824-25.0977 94.4824-35.5957C94.4824-46.0938 85.791-54.7852 75.293-54.7852C64.8438-54.7852 56.1523-46.0938 56.1523-35.5957C56.1523-25.0977 64.8438-16.3574 75.293-16.3574Z"/>
   <path class="monochrome-1 multicolor-1:tintColor hierarchical-1:primary SFSymbolsPreviewWireframe" d="M20.1172 6.5918L61.377 6.5918C75 6.5918 85.6934-3.90625 85.6934-17.3828C85.6934-29.9316 76.2207-39.6484 63.4766-40.9668C58.0566-49.4141 49.0723-54.4922 38.916-54.4922C24.8535-54.4922 12.793-44.4336 10.0586-30.8594C3.36914-27.5879-0.927734-20.8984-0.927734-13.0371C-0.927734-1.51367 7.8125 6.5918 20.1172 6.5918Z"/>
   <path class="monochrome-2 multicolor-2:white hierarchical-2:primary SFSymbolsPreviewWireframe" d="M20.1172 1.80664L61.377 1.80664C72.4121 1.80664 80.9082-6.54297 80.9082-17.3828C80.9082-28.125 72.2656-36.2305 60.6445-36.3281C56.25-44.6777 48.1934-49.707 38.916-49.707C26.2695-49.707 15.5762-40.0391 14.4043-27.4414C8.00781-25.4395 3.85742-19.873 3.85742-13.0371C3.85742-4.24805 10.4004 1.80664 20.1172 1.80664Z"/>
  </g>
  <g id="Ultralight-S" transform="matrix(1 0 0 1 505.373 696)">
   <path class="SFSymbolsPreviewWireframe" d="M74.7935-11.2246C74.2026-11.2246 73.7197-10.7417 73.7197-10.2417L73.7197 0.920898C73.7197 1.46632 74.2026 1.94924 74.7935 1.94924C75.3423 1.94924 75.8672 1.46632 75.8672 0.920898L75.8672-10.2417C75.8672-10.7417 75.3423-11.2246 74.7935-11.2246Z"/>
   <path class="monochrome-0 multicolor-0:systemYellowColor hierarchical-0:secondary SFSymbolsPreviewWireframe" d="M74.7935-61.2383C75.3423-61.2383 75.8672-61.7598 75.8672-62.2632L75.8672-73.4258C75.8672-73.9712 75.3423-74.4087 74.7935-74.4087C74.2026-74.4087 73.7197-73.9712 73.7197-73.4258L73.7197-62.2632C73.7197-61.7598 74.2026-61.2383 74.7935-61.2383ZM92.4692-53.8618C92.8408-53.4902 93.5044-53.4868 93.9248-53.8618L101.797-61.7339C102.259-62.1963 102.214-62.8145 101.797-63.2315C101.425-63.603 100.762-63.6485 100.348-63.2315L92.4692-55.3526C92.0557-54.9424 92.0557-54.2788 92.4692-53.8618ZM99.7481-36.186C99.7481-35.6338 100.186-35.2031 100.731-35.2031L111.936-35.2031C112.575-35.2031 113.006-35.6338 113.006-36.186C113.006-36.7769 112.575-37.2144 111.936-37.2144L100.731-37.2144C100.186-37.2144 99.7481-36.7769 99.7481-36.186ZM92.4692-18.5977C92.0557-18.2261 92.0557-17.5625 92.4692-17.1455L100.348-9.27C100.762-8.81101 101.425-8.85984 101.797-9.27342C102.214-9.64159 102.259-10.3052 101.797-10.7222L93.9214-18.5977C93.5044-19.0112 92.8408-19.0112 92.4692-18.5977ZM57.1177-18.5977C56.7041-19.0112 56.0371-19.0112 55.6655-18.5977L47.748-10.7256C47.331-10.3086 47.3765-9.64501 47.7446-9.27684C48.1616-8.86326 48.7832-8.81443 49.2422-9.27342L57.1143-17.1455C57.4859-17.5625 57.4859-18.2261 57.1177-18.5977ZM49.7481-36.186C49.7481-36.7769 49.2685-37.2144 48.7197-37.2144L37.5151-37.2144C36.9243-37.2144 36.4902-36.7769 36.4902-36.186C36.4902-35.6338 36.9243-35.2031 37.5151-35.2031L48.7197-35.2031C49.2685-35.2031 49.7481-35.6338 49.7481-36.186ZM57.1143-53.8618C57.4859-54.2754 57.4859-54.9424 57.1177-55.3526L49.2422-63.2315C48.7866-63.645 48.1685-63.603 47.7515-63.2315C47.3799-62.8145 47.3345-62.1963 47.748-61.7373L55.6655-53.8618C56.0371-53.4902 56.7007-53.4902 57.1143-53.8618ZM74.7481-18.4009C84.565-18.4009 92.5752-26.4145 92.5752-36.2314C92.5752-46.0938 84.565-54.104 74.7481-54.104C64.8892-54.104 56.8789-46.0938 56.8789-36.2314C56.8789-26.4145 64.8892-18.4009 74.7481-18.4009Z"/>
   <path class="monochrome-1 multicolor-1:tintColor hierarchical-1:primary SFSymbolsPreviewWireframe" d="M18.9365 3.91262L61.0137 3.91262C72.9111 3.91262 82.333-5.17772 82.333-16.6563C82.333-27.6612 73.6323-36.0157 62.0234-36.8799C57.1484-45.3272 49.2539-51.0865 38.5981-51.0865C25.6709-51.0865 15.018-41.0733 12.9194-28.1348C6.45701-25.7261 1.34276-20.1265 1.34276-12.3106C1.34276-3.5117 8.08496 3.91262 18.9365 3.91262Z"/>
   <path class="monochrome-2 multicolor-2:white hierarchical-2:primary SFSymbolsPreviewWireframe" d="M18.9365 0.898445L61.0137 0.898445C71.2769 0.898445 79.3189-6.86084 79.3189-16.6563C79.3189-26.4448 71.085-33.8692 60.2358-33.9214C55.8413-42.4072 48.602-48.0723 38.5981-48.0723C26.6328-48.0723 16.8022-38.2681 15.7212-25.8067C9.41552-24.168 4.35693-19.3281 4.35693-12.3106C4.35693-5.06542 9.85547 0.898445 18.9365 0.898445Z"/>
  </g>
 </g>
</svg>
