<svg xmlns="http://www.w3.org/2000/svg" viewBox="0 0 1024 1024" role="img" aria-labelledby="title desc">
  <title id="title">Ink</title>
  <desc id="desc">A purple rounded app icon with a white pencil and sparkles.</desc>
  <defs>
    <linearGradient id="background" x1="192" y1="88" x2="820" y2="956" gradientUnits="userSpaceOnUse">
      <stop offset="0" stop-color="#b779ff"/>
      <stop offset="0.46" stop-color="#8e49f5"/>
      <stop offset="1" stop-color="#6124dd"/>
    </linearGradient>
    <radialGradient id="shine" cx="310" cy="146" r="780" gradientUnits="userSpaceOnUse">
      <stop offset="0" stop-color="#ffffff" stop-opacity="0.34"/>
      <stop offset="0.42" stop-color="#ffffff" stop-opacity="0.06"/>
      <stop offset="1" stop-color="#ffffff" stop-opacity="0"/>
    </radialGradient>
    <filter id="softShadow" x="-20%" y="-20%" width="140%" height="140%" color-interpolation-filters="sRGB">
      <feDropShadow dx="0" dy="22" stdDeviation="20" flood-color="#361080" flood-opacity="0.28"/>
    </filter>
    <filter id="innerGlow" x="-10%" y="-10%" width="120%" height="120%" color-interpolation-filters="sRGB">
      <feGaussianBlur in="SourceAlpha" stdDeviation="18" result="blur"/>
      <feOffset dy="10" result="offset"/>
      <feComposite in="offset" in2="SourceAlpha" operator="arithmetic" k2="-1" k3="1" result="inner"/>
      <feFlood flood-color="#ffffff" flood-opacity="0.24"/>
      <feComposite in2="inner" operator="in"/>
      <feComposite in2="SourceGraphic" operator="over"/>
    </filter>
  </defs>

  <rect width="1024" height="1024" rx="234" fill="url(#background)"/>
  <rect width="1024" height="1024" rx="234" fill="url(#shine)"/>
  <rect x="30" y="28" width="964" height="968" rx="210" fill="none" stroke="#ffffff" stroke-opacity="0.16" stroke-width="28" filter="url(#innerGlow)"/>

  <g filter="url(#softShadow)" fill="#ffffff" fill-opacity="0.85" transform="translate(224 220) scale(24.1)">
    <path d="M17.4805 9.31641C17.6465 9.31641 17.7734 9.19922 17.8125 9.0332C18.3691 6.04492 18.8086 5.43945 21.8359 4.99023C22.0117 4.96094 22.1191 4.83398 22.1191 4.66797C22.1191 4.48242 22.0117 4.35547 21.8359 4.32617C18.8086 3.87695 18.2715 3.22266 17.8125 0.3125C17.7734 0.117188 17.6465 0 17.4805 0C17.2949 0 17.168 0.117188 17.1387 0.302734C16.5723 3.26172 16.123 3.87695 13.1152 4.32617C12.9199 4.35547 12.8125 4.48242 12.8125 4.66797C12.8125 4.83398 12.9199 4.95117 13.1152 4.99023C16.123 5.43945 16.6602 6.03516 17.1387 9.02344C17.1582 9.19922 17.2754 9.31641 17.4805 9.31641ZM3.4375 19.4141C3.61328 19.4141 3.71094 19.3066 3.74023 19.1406C4.08203 16.8652 4.08203 16.6406 6.60156 16.2793C6.77734 16.25 6.88477 16.1426 6.88477 15.9766C6.88477 15.8105 6.77734 15.7031 6.60156 15.6738C4.08203 15.3027 4.08203 15.0879 3.74023 12.8125C3.71094 12.6465 3.61328 12.5293 3.4375 12.5293C3.27148 12.5293 3.16406 12.6465 3.13477 12.8125C2.79297 15.0879 2.79297 15.3027 0.273438 15.6738C0.107422 15.7031 0 15.8105 0 15.9766C0 16.1426 0.107422 16.25 0.273438 16.2793C2.79297 16.6406 2.79297 16.8652 3.13477 19.1406C3.16406 19.3066 3.27148 19.4141 3.4375 19.4141ZM7.65625 23.0859C7.7832 23.0859 7.88086 22.9883 7.90039 22.8613C8.125 21.4844 8.08594 21.3574 9.7168 21.0547C9.85352 21.0254 9.93164 20.9277 9.93164 20.8008C9.93164 20.6738 9.85352 20.5859 9.7168 20.5566C8.0957 20.2539 8.14453 20.1367 7.90039 18.7402C7.88086 18.6133 7.77344 18.5254 7.65625 18.5254C7.5293 18.5254 7.44141 18.6133 7.41211 18.7598C7.13867 20.1367 7.2168 20.2832 5.60547 20.5566C5.46875 20.5859 5.38086 20.6641 5.38086 20.8008C5.38086 20.9277 5.46875 21.0254 5.5957 21.0547C7.2168 21.3574 7.13867 21.4844 7.41211 22.8613C7.44141 22.9883 7.5293 23.0859 7.65625 23.0859Z"/>
    <g transform="matrix(0.93 0 0 -0.93 5.4 24.38)">
      <path d="M3.24919 18.8046L17.3312 4.74211L15.3293 2.73039L1.24723 16.7929L0.0265306 19.4882C-0.0906569 19.7616 0.202312 20.0741 0.475749 19.957ZM18.3761 3.72649L19.5578 2.55461C20.1632 1.94914 20.1925 1.31438 19.6554 0.777268L19.3039 0.425706C18.7765-0.101638 18.132-0.0528096 17.5363 0.533128L16.3449 1.705Z"/>
    </g>
    <g transform="matrix(0.93 0 0 -0.93 5.9 24.88)" fill="#f3ecff" fill-opacity="0.24">
      <path d="M3.24919 18.8046L17.3312 4.74211L15.3293 2.73039L1.24723 16.7929L0.0265306 19.4882C-0.0906569 19.7616 0.202312 20.0741 0.475749 19.957ZM18.3761 3.72649L19.5578 2.55461C20.1632 1.94914 20.1925 1.31438 19.6554 0.777268L19.3039 0.425706C18.7765-0.101638 18.132-0.0528096 17.5363 0.533128L16.3449 1.705Z"/>
    </g>
  </g>
</svg>
